<svg width="20" height="21" viewBox="0 0 20 21" fill="none" xmlns="http://www.w3.org/2000/svg">
<path d="M17.4995 16.4887V14.2306C17.5087 13.8614 17.3816 13.5017 17.1424 13.22C16.4679 12.4255 14.1545 11.9173 13.2375 12.1125C12.5228 12.2647 12.0226 12.9823 11.5337 13.4703C9.64553 12.3987 8.08215 10.8385 7.0085 8.954C7.49741 8.46607 8.21656 7.96697 8.36903 7.25357C8.56428 6.33981 8.05677 4.04124 7.26776 3.36403C6.99024 3.12583 6.63539 2.99647 6.26937 3.00007H4.00675C3.14465 3.00088 2.4274 3.77412 2.50589 4.64099C2.5 12.1125 8.33336 18 15.8554 17.9941C16.7269 18.0727 17.503 17.3519 17.4995 16.4887Z" stroke="white" stroke-width="1.5" stroke-linecap="round" stroke-linejoin="round"/>
</svg>
