<svg width="35" height="35" viewBox="0 0 35 35" fill="none" xmlns="http://www.w3.org/2000/svg">
<g filter="url(#filter0_d_39_57)">
<rect x="3.21289" y="3.7063" width="28" height="28" rx="4" fill="#5181B8" shape-rendering="crispEdges"/>
<path d="M25.9077 12.7493C25.6421 13.8782 23.2514 17.2649 23.2514 17.2649C23.0522 17.5969 22.9526 17.7629 23.2514 18.1282C23.3843 18.2942 25.8745 20.6848 26.2397 21.8137C26.4057 22.3782 26.1401 22.6438 25.5757 22.6438H23.6167C22.8862 22.6438 22.6538 22.0793 21.3257 20.7512C20.1636 19.6223 19.6655 19.4563 19.3667 19.4563C18.769 19.4563 18.8686 19.6887 18.8686 21.9133C18.8686 22.3782 18.7026 22.6438 17.4741 22.6438C15.4155 22.6438 13.1245 21.4153 11.4975 19.0911C9.07371 15.6711 8.40964 13.1145 8.40964 12.5833C8.40964 12.2844 8.54246 12.0188 9.07371 12.0188H11.0327C11.5307 12.0188 11.73 12.2512 11.9292 12.7825C12.8921 15.5715 14.4858 18.0286 15.1499 18.0286C15.4155 18.0286 15.5151 17.8958 15.5151 17.2649V14.3762C15.4487 13.0481 14.7514 12.9485 14.7514 12.4836C14.7514 12.2512 14.9175 12.0188 15.2495 12.0188H18.3042C18.7358 12.0188 18.8686 12.2512 18.8686 12.7493V16.634C18.8686 17.0325 19.0678 17.1985 19.1675 17.1985C19.4331 17.1985 19.6323 17.0325 20.0971 16.6008C21.4917 15.0071 22.4878 12.5833 22.4878 12.5833C22.6206 12.2844 22.853 12.0188 23.3511 12.0188H25.31C25.9077 12.0188 26.0073 12.3508 25.9077 12.7493Z" fill="white"/>
</g>
<defs>
<filter id="filter0_d_39_57" x="0.212891" y="0.706299" width="34" height="34" filterUnits="userSpaceOnUse" color-interpolation-filters="sRGB">
<feFlood flood-opacity="0" result="BackgroundImageFix"/>
<feColorMatrix in="SourceAlpha" type="matrix" values="0 0 0 0 0 0 0 0 0 0 0 0 0 0 0 0 0 0 127 0" result="hardAlpha"/>
<feOffset/>
<feGaussianBlur stdDeviation="1.5"/>
<feComposite in2="hardAlpha" operator="out"/>
<feColorMatrix type="matrix" values="0 0 0 0 0 0 0 0 0 0 0 0 0 0 0 0 0 0 0.25 0"/>
<feBlend mode="normal" in2="BackgroundImageFix" result="effect1_dropShadow_39_57"/>
<feBlend mode="normal" in="SourceGraphic" in2="effect1_dropShadow_39_57" result="shape"/>
</filter>
</defs>
</svg>
